PathFileType	4	(X/Y/Z)	Run_200 01
DataRate	CameraRate	NumFrames	NumMarkers	Units	OrigDataRate	OrigDataStartFrame	OrigNumFrames
120	120	6	42	mm	120	32	128
Frame#	Time	LASI			RASI			LPSI			RPSI			RTH1			RTH2			RTH3			LTH1			LTH2			LTH3			RTB2			RTB3			LTB1			LTB2			LTB3			RCAL			RTOE			RMT5			LCAL			LTOE			LMT5			LACR			RACR			CLAV			C7			RUA1			RUA2			RUA3			RLEL			RMEL			LUA1			LUA2			LUA3			LLEL			LMEL			RFAsuperior			RFAradius			RFAulna			LFAsuperior			LFAradius			LFAulna			RTB1			
		X1	Y1	Z1	X2	Y2	Z2	X3	Y3	Z3	X4	Y4	Z4	X5	Y5	Z5	X6	Y6	Z6	X7	Y7	Z7	X8	Y8	Z8	X9	Y9	Z9	X10	Y10	Z10	X11	Y11	Z11	X12	Y12	Z12	X13	Y13	Z13	X14	Y14	Z14	X15	Y15	Z15	X16	Y16	Z16	X17	Y17	Z17	X18	Y18	Z18	X19	Y19	Z19	X20	Y20	Z20	X21	Y21	Z21	X22	Y22	Z22	X23	Y23	Z23	X24	Y24	Z24	X25	Y25	Z25	X26	Y26	Z26	X27	Y27	Z27	X28	Y28	Z28	X29	Y29	Z29	X30	Y30	Z30	X31	Y31	Z31	X32	Y32	Z32	X33	Y33	Z33	X34	Y34	Z34	X35	Y35	Z35	X36	Y36	Z36	X37	Y37	Z37	X38	Y38	Z38	X39	Y39	Z39	X40	Y40	Z40	X41	Y41	Z41	X42	Y42	Z42	

31	0.483333	493.29659	1037.267953	-448.586926	493.971123	1026.104393	-204.835973	321.425772	1049.010268	-374.016463	323.113061	1051.63685	-285.015502	428.327979	839.929174	-173.911278	458.679618	713.781237	-214.742176	346.438336	609.401168	-211.89397	505.994545	900.305132	-489.322287	601.144639	821.464326	-460.066434	587.717839	667.138087	-464.33122	266.735245	349.301283	-227.291482	233.993722	241.996935	-301.705212	630.41728	434.751878	-394.595987	560.313641	349.506061	-455.605543	542.347943	265.163759	-385.44697	71.30933	162.052374	-306.931685	267.268864	67.37879	-323.658518	228.994243	64.651038	-232.360525	395.968195	178.203989	-397.81738	606.367813	122.560833	-386.233442	577.244942	106.786593	-474.006932	441.042564	1479.006314	-510.595059	499.128172	1458.356323	-132.809109	567.284216	1436.464107	-312.460813	437.939216	1533.12306	-317.814462	490.732554	1347.86747	-70.203389	509.832968	1280.503145	-77.251676	425.660931	1264.61261	-13.196149	465.139439	1185.796259	10.821104	397.254821	1155.166071	-43.412353	385.793322	1423.313119	-558.6615399999999	307.433504	1385.882931	-531.785528	335.883936	1345.125779	-593.838517	269.617204	1257.318152	-625.4627829999999	226.712818	1232.286405	-547.810513	535.8635829999999	1185.921263	-34.317565	638.38845	1191.882216	-163.785737	631.898059	1125.678922	-150.102251	338.230606	1237.424037	-620.556483	483.52805	1192.54589	-530.622675	464.037564	1134.560808	-555.0516249999999	327.990747	395.275185	-281.580172	
32	0.491667	493.939238	1041.480244	-449.420059	496.130335	1030.119045	-206.720657	323.227218	1053.254853	-373.92266	325.244848	1055.853149	-284.833046	427.276073	843.8329220000001	-173.545326	454.477945	716.246217	-213.940234	340.371163	615.272054	-210.299107	505.93696	904.044098	-489.864512	600.166526	823.6673520000001	-460.525842	583.735493	668.513248	-464.6628	257.128249	356.246434	-224.082976	224.947411	248.078399	-298.010708	633.124475	434.995858	-394.864688	568.290262	344.905818	-455.128424	555.987487	260.153321	-383.957007	61.788873	171.901088	-304.467737	252.602779	67.635379	-322.611436	213.97795	65.388966	-231.621238	415.39908	163.880422	-396.107035	628.8190090000001	122.651534	-381.95387	601.63402	103.597806	-469.979276	439.053298	1483.115158	-510.63575	500.619335	1462.656832	-133.877727	566.799627	1440.861761	-314.00546	437.57116	1537.225024	-317.987737	493.032763	1352.590177	-70.76014499999999	512.548896	1285.463558	-76.82195299999999	429.03571	1269.434395	-12.139236	468.197001	1190.087014	10.247475	398.623298	1160.300572	-42.353706	383.93286	1427.729256	-558.883118	305.860852	1389.864246	-532.635521	334.572412	1348.981705	-594.525248	268.501707	1260.777266	-625.934985	225.771948	1235.797948	-548.175306	537.765668	1190.090595	-36.432525	636.7022009999999	1196.338151	-168.749626	630.732127	1130.135295	-154.927514	337.07856	1241.310591	-621.325913	482.990354	1197.152804	-531.708701	463.654531	1139.168091	-555.935987	319.8454	400.923521	-278.273028	
33	0.5	494.72641	1044.979036	-450.103688	498.215084	1033.690121	-208.536873	325.496231	1057.104682	-373.998115	327.421852	1059.8477	-284.85326	426.200311	847.417009	-173.058978	450.718155	718.917478	-212.334499	335.768373	620.304718	-208.617076	505.474851	906.673286	-490.366659	598.733023	824.574255	-461.402705	579.140996	668.987974	-465.162188	249.01875	362.560735	-220.880933	216.82712	253.616759	-294.298165	635.1030500000001	434.972624	-395.321847	575.508403	340.582288	-454.668095	568.6449270000001	255.56725	-383.020522	53.003387	182.125586	-301.701379	238.100993	68.37658500000001	-321.699564	199.381605	66.396044	-230.632116	434.360589	150.858229	-394.623779	649.703164	123.57703	-377.19836	624.842763	101.008236	-465.46313	437.188963	1486.699341	-510.665263	501.756196	1466.490655	-134.975817	566.2486	1444.796337	-315.482314	437.19713	1540.865927	-318.240963	494.891846	1356.892524	-71.37326400000001	514.861599	1289.921036	-76.48834600000001	432.046842	1273.85869	-11.148401	470.805978	1193.929649	9.635951	399.679001	1165.033668	-41.249791	382.226726	1431.640612	-559.122194	304.467095	1393.255911	-533.5501379999999	333.465624	1352.303245	-595.231634	267.718597	1263.611267	-626.4212219999999	225.199388	1238.581017	-548.608628	539.269805	1193.73912	-38.405246	634.795983	1200.048094	-173.270195	629.203704	1133.879732	-159.343286	336.299305	1244.60542	-622.101177	482.805523	1201.142333	-532.847928	463.631828	1143.152852	-556.923436	313.420333	405.535615	-274.717742	
34	0.508333	495.620158	1047.627271	-450.526144	499.980813	1036.712766	-210.064843	327.771486	1060.58725	-374.223028	329.436441	1063.6597	-285.061824	425.195662	850.538133	-172.573942	447.88669	721.88289	-209.76808	332.905598	624.218038	-207.031038	504.655711	908.132709	-490.792363	596.860637	824.247395	-462.820832	574.029433	668.552586	-465.767125	242.541946	367.938111	-217.851845	209.439289	258.504299	-290.845212	636.3321110000001	434.700402	-395.830005	581.80479	336.626178	-454.114331	580.19661	251.618195	-382.281001	44.891608	192.614576	-298.710128	223.835694	69.669206	-320.789455	185.228043	67.787125	-229.46081	452.347338	139.308564	-393.020886	668.638056	124.877508	-372.687794	646.255284	98.912097	-460.815178	435.506137	1489.656705	-510.695752	502.496779	1469.809856	-136.086939	565.641478	1448.214603	-316.874588	436.834527	1543.944159	-318.575653	496.313468	1360.713524	-71.996166	516.633373	1293.620487	-76.642523	434.582321	1277.819776	-10.337967	472.972865	1197.297209	9.062916	400.397575	1169.274571	-40.156129	380.722791	1434.98251	-559.389106	303.310522	1395.989495	-534.511297	332.565932	1355.032074	-595.930235	267.248195	1265.787013	-626.9644970000001	224.994625	1240.616466	-549.133947	540.385341	1196.828427	-40.184739	632.749852	1202.937497	-177.284882	627.345151	1136.870978	-163.320604	335.883456	1247.295472	-622.869904	482.943822	1204.478953	-534.0432499999999	463.970808	1146.495611	-558.020797	308.626359	408.882579	-271.213063	
35	0.516667	496.568169	1049.334421	-450.647615	501.243703	1039.127174	-211.205198	329.550885	1063.724215	-374.615856	331.110407	1067.235707	-285.422735	424.460623	853.063986	-172.164578	446.523645	724.670472	-206.479496	331.959969	626.850044	-205.630396	503.554036	908.479651	-491.206814	594.58287	822.823952	-464.850356	568.5119120000001	667.246075	-466.401413	237.691963	372.229393	-215.140662	202.672499	262.813279	-287.803351	636.751659	434.153783	-396.222931	587.026033	333.003357	-453.346066	590.416159	248.384037	-381.345852	37.41049	203.268971	-295.628176	209.862582	71.523253	-319.801929	171.498686	69.666882	-228.176991	468.751952	129.293785	-390.996928	685.241458	126.219931	-368.971165	665.1707720000001	97.195973	-456.483972	434.082227	1491.88196	-510.773487	502.825005	1472.558381	-137.203784	564.9777	1451.066304	-318.175742	436.501055	1546.363686	-319.00069	497.322188	1363.991252	-72.544355	517.910308	1296.484282	-77.303077	436.515153	1281.238221	-9.812818999999999	474.684873	1200.163334	8.596342	400.787663	1172.907656	-39.129792	379.474812	1437.682733	-559.699828	302.44509	1397.991794	-535.4962379999999	331.887421	1357.111775	-596.641423	267.071797	1267.26493	-627.606011	225.156283	1241.894182	-549.7716830000001	541.122027	1199.313788	-41.734209	630.586485	1204.978977	-180.816697	625.18142	1139.070182	-166.883503	335.806138	1249.354311	-623.635927	483.381668	1207.137664	-535.2916729999999	464.656342	1149.176132	-559.2174209999999	305.282598	410.954221	-268.05714	
36	0.525	497.52248	1050.084256	-450.524254	502.006907	1040.911813	-212.01668	330.633953	1066.464833	-375.180159	332.417853	1070.38486	-285.89344	424.232703	854.900981	-171.840724	446.948559	726.4763	-203.065193	332.98175	628.148836	-204.399032	502.243525	907.842207	-491.713128	591.966856	820.450385	-467.403746	562.768387	665.177	-467.01219	234.353869	375.469541	-212.821793	196.538617	266.708069	-285.194052	636.341934	433.263314	-396.387045	591.024396	329.593238	-452.296706	598.947884	245.727243	-380.034737	30.58843	214.03323	-292.60334	196.235159	73.917393	-318.72994	158.142103	72.089356	-226.827769	482.93844	120.71693	-388.451955	699.175118	127.554434	-366.23802	680.938778	95.82364	-452.913664	433.002738	1493.279057	-510.970601	502.757766	1474.668538	-138.324652	564.245946	1453.304132	-319.386877	436.205062	1548.046768	-319.530363	497.929652	1366.662863	-72.948503	518.851707	1298.650325	-78.101	437.742676	1284.027868	-9.63044	475.893222	1202.479502	8.234593	400.858412	1175.821022	-38.237944	378.54304	1439.655682	-560.089193	301.907378	1399.205991	-536.498438	331.457647	1358.482983	-597.402508	267.179096	1268.006999	-628.369426	225.661611	1242.399631	-550.537265	541.484924	1201.142209	-43.056997	628.286459	1206.184624	-183.939504	622.744812	1140.452413	-170.066164	336.040248	1250.735244	-624.432064	484.109205	1209.09681	-536.605185	465.666549	1151.166	-560.511166	303.227964	411.906058	-265.42524	
